# xmcd CD database file generated by Grip 3.0.0
# 
# Track frame offsets:
#       225
#       2393
#       11684
#       18433
#       28885
#       35210
#       37378
#       74643
#       79726
#       109672
#       126129
#       137460
# 
# Disc length: 1860 seconds
# 
# Revision: 3
# Processed by: cddbd v1.4PL0 Copyright (c) Steve Scherf et al.
# Submitted via: Grip 3.0.0
# 
DISCID=a107410c
DTITLE=Various Artist - Frohe Weihnachten CD2
DYEAR=1900
DGENRE=Country
TTITLE0=Glockengeläut
TTITLE1=Vom Himmel hoch, da komm ich her
TTITLE2=Alle Jahre wieder
TTITLE3=Es ist ein Roß entsprungen
TTITLE4=Oh, Du Fröhliche
TTITLE5=Glockengeläut
TTITLE6=J.S.Bach Weihnachtsoratorium (Auszüge)  Chor: Jauchzet, frohlocket, au
TTITLE6=f, preiset die Tage
TTITLE7=J.S.Bach Weihnachtsoratorium (Auszüge)  Choral: Ach mein herzliebes Je
TTITLE7=sulein
TTITLE8=J.S.Bach Weihnachtsoratorium (Auszüge)  Sinfonia
TTITLE9=J.S.Bach Weihnachtsoratorium (Auszüge)  Choral: Nun seid Ihr wohl gebr
TTITLE9=ochen
TTITLE10=Ave Maria
TTITLE11=Glockengeläut
EXTD=
EXTT0=
EXTT1=
EXTT2=
EXTT3=
EXTT4=
EXTT5=
EXTT6=
EXTT7=
EXTT8=
EXTT9=
EXTT10=
EXTT11=
PLAYORDER=
